<svg id="surface1" xmlns="http://www.w3.org/2000/svg" width="90.381" height="78.403" viewBox="0 0 90.381 78.403">
  <path id="Path_60" data-name="Path 60" d="M84.178,25.976V21.189a9.8,9.8,0,0,0-9.842-9.841H48.525A5.823,5.823,0,0,1,43.573,8.5L41.428,4.849A10.051,10.051,0,0,0,32.927,0h-16.9A9.82,9.82,0,0,0,8.87,3.095a9.935,9.935,0,0,0-2.723,7.324L6.848,26h-.66A6.161,6.161,0,0,0,.06,33.011l5.1,36.829a9.962,9.962,0,0,0,9.8,8.562H75.47a9.987,9.987,0,0,0,9.821-8.6l5.034-36.787A6.186,6.186,0,0,0,88.82,28.1,6.031,6.031,0,0,0,84.178,25.976ZM10.252,10.254a5.888,5.888,0,0,1,1.589-4.292,5.738,5.738,0,0,1,4.168-1.836h16.9a5.823,5.823,0,0,1,4.952,2.847L40,10.625a10,10,0,0,0,8.5,4.87H74.315a5.676,5.676,0,0,1,5.715,5.715V26H10.974Zm75.989,22.18L81.206,69.242a5.832,5.832,0,0,1-5.715,5.035H14.977a5.832,5.832,0,0,1-5.715-5.014L4.124,32.455a1.975,1.975,0,0,1,.5-1.63,2.057,2.057,0,0,1,1.548-.7H84.2a1.958,1.958,0,0,1,1.547.7A1.929,1.929,0,0,1,86.241,32.434Zm0,0" transform="translate(-0.001)" fill="#6e6e6e"/>
  <path id="Path_61" data-name="Path 61" d="M152.9,239.5a2.061,2.061,0,0,0-2.909-.227l-9.263,7.9a2.063,2.063,0,0,0,0,3.137l9.263,7.9a2.063,2.063,0,0,0,2.683-3.136l-7.428-6.334,7.428-6.334A2.1,2.1,0,0,0,152.9,239.5Zm0,0" transform="translate(-115.29 -196.626)" fill="#6e6e6e"/>
  <path id="Path_62" data-name="Path 62" d="M308.819,247.059l-9.264-7.9a2.063,2.063,0,1,0-2.682,3.136l7.428,6.334-7.428,6.334a2.063,2.063,0,1,0,2.682,3.136l9.264-7.9a2.064,2.064,0,0,0,0-3.136Zm0,0" transform="translate(-243.871 -196.531)" fill="#6e6e6e"/>
  <path id="Path_63" data-name="Path 63" d="M234.041,206.325a2.054,2.054,0,0,0-2.435,1.589l-5.777,27.441a2.054,2.054,0,0,0,1.589,2.435,3.083,3.083,0,0,0,.434.041,2.071,2.071,0,0,0,2.022-1.63l5.777-27.441A2.1,2.1,0,0,0,234.041,206.325Zm0,0" transform="translate(-185.929 -169.868)" fill="#6e6e6e"/>
</svg>
