<svg id="knowledge" xmlns="http://www.w3.org/2000/svg" width="109.618" height="109.618" viewBox="0 0 109.618 109.618">
  <path id="Path_48" data-name="Path 48" d="M31.876,14.376,25.688,2,19.5,14.376Z" transform="translate(13.209 -0.232)" fill="#6e6e6e"/>
  <ellipse id="Ellipse_6" data-name="Ellipse 6" cx="7" cy="3.5" rx="7" ry="3.5" transform="translate(47.618 67.618)" fill="#6e6e6e"/>
  <path id="Path_49" data-name="Path 49" d="M109.46,70.063,85.866,61.41V2.768A1.768,1.768,0,0,0,84.1,1H62.881a1.768,1.768,0,0,0-1.768,1.768V52.335l-4.694-1.722a1.781,1.781,0,0,0-1.218,0l-4.7,1.722V20.448a1.772,1.772,0,0,0-.186-.79l-8.84-17.68a1.841,1.841,0,0,0-3.163,0l-8.84,17.68a1.751,1.751,0,0,0-.187.79V60.114L2.158,70.063a1.767,1.767,0,0,0,0,3.317L18.68,79.439v18.8a1.77,1.77,0,0,0,1.261,1.694L55.3,110.544a1.771,1.771,0,0,0,1.015,0L91.677,99.936a1.77,1.77,0,0,0,1.261-1.694v-18.8l7.072-2.594V92.938a5.311,5.311,0,0,0-5.3,5.3v7.072a5.311,5.311,0,0,0,5.3,5.3h3.536a5.311,5.311,0,0,0,5.3-5.3V98.242a5.311,5.311,0,0,0-5.3-5.3V75.549l5.914-2.168a1.768,1.768,0,0,0,0-3.319Zm-4.146,28.179v7.072a1.769,1.769,0,0,1-1.768,1.768H100.01a1.769,1.769,0,0,1-1.768-1.768V98.242a1.769,1.769,0,0,1,1.768-1.768h3.536A1.769,1.769,0,0,1,105.314,98.242ZM64.649,46.969H75.258V43.433H64.649V39.9h7.072V36.361H64.649V32.825H75.258V29.289H64.649V25.753h7.072V22.216H64.649V18.68H75.258V15.144H64.649V11.608h7.072V8.072H64.649V4.536H82.33V60.114l-17.68-6.483ZM45.2,54.28v-27.8l1.768-1.768V53.631ZM46.585,20.1l-3.152,3.152-2.286-2.286a1.766,1.766,0,0,0-2.5,0l-2.286,2.286L33.208,20.1l2.477-4.956h8.423Zm-8.457,6.384L39.9,24.716l1.768,1.768V55.576l-3.536,1.3ZM39.9,6.721l2.443,4.887H37.453Zm-7.072,18,1.768,1.768V58.169l-1.768.649ZM89.4,96.927,55.809,107,22.216,96.927V80.735L55.2,92.828a1.752,1.752,0,0,0,1.22,0L89.4,80.735Zm-33.593-7.64L7.9,71.721l47.9-17.565,47.9,17.565Zm-8.84-17.565c0,3.023,3.8,5.3,8.84,5.3s8.84-2.281,8.84-5.3-3.8-5.3-8.84-5.3S46.969,68.7,46.969,71.721Zm14.144,0c0,.44-1.881,1.768-5.3,1.768s-5.3-1.328-5.3-1.768,1.881-1.768,5.3-1.768S61.113,71.281,61.113,71.721Z" transform="translate(-1 -1)" fill="#6e6e6e"/>
</svg>
