<svg xmlns="http://www.w3.org/2000/svg" width="477.771" height="412.387" viewBox="0 0 477.771 412.387">
  <g id="Group_58" data-name="Group 58" transform="translate(-576.257 -94.19)">
    <g id="Group_56" data-name="Group 56" transform="translate(623.855 463.344)">
      <path id="Path_18" data-name="Path 18" d="M655.449,417.668H619.295a1.157,1.157,0,0,0-1.158,1.156v27.434a14.453,14.453,0,0,0,14.453,14.453h9.564a14.452,14.452,0,0,0,14.452-14.453V418.824A1.157,1.157,0,0,0,655.449,417.668Z" transform="translate(-618.137 -417.668)" fill="#c1c1c1"/>
      <path id="Path_19" data-name="Path 19" d="M647.435,455.487c8.158-4.606,22.155-18.2,19.824-27.77a8.019,8.019,0,0,0-4.522-5.566c-5.407-2.513-13.147.523-14.01.876L651.3,428.4c1.868-.759,6.432-2,8.58-1a2.069,2.069,0,0,1,1.168,1.606c1.361,5.574-9.593,17.323-16.933,21.467Z" transform="translate(-614.458 -417.173)" fill="#c1c1c1"/>
    </g>
    <path id="Path_20" data-name="Path 20" d="M642.179,418.409c.142.284.164-.1.251-.34l.217-.873c.122-.605.236-1.223.325-1.862a24.826,24.826,0,0,0,.207-3.968,23.026,23.026,0,0,0-1.765-8.173,19.555,19.555,0,0,0-4.468-6.5,18.79,18.79,0,0,0-2.754-2.232l-2.251-1.542a25.774,25.774,0,0,1-6.682-6.656,11.964,11.964,0,0,1-1.646-3.491,3.968,3.968,0,0,1-.117-2.138,5.759,5.759,0,0,1,.293-.743,13.1,13.1,0,0,1,.727-1.42,15.149,15.149,0,0,1,2.155-2.808,10.871,10.871,0,0,1,5.813-3.015,10.383,10.383,0,0,1,6.339,1.156,16.828,16.828,0,0,1,3.191,2.078,12.151,12.151,0,0,1,1.573,1.347,3.38,3.38,0,0,0,1.766,1.114l2.138.389c4.652.847,8.942-3.465,9.581-9.632a13.953,13.953,0,0,0-2.039-8.973,10.2,10.2,0,0,0-2.545-2.516,24.061,24.061,0,0,0-2.9-1.9,29.28,29.28,0,0,0-6.288-2.886,22.206,22.206,0,0,0-13.863-.12,26.183,26.183,0,0,0-12.272,8.879,32.429,32.429,0,0,0-4.339,7.575A32.975,32.975,0,0,0,611.3,373.8a27.146,27.146,0,0,0-.76,5.851,25.644,25.644,0,0,0,2.226,10.854,24.64,24.64,0,0,0,4.742,6.985,32.462,32.462,0,0,0,10.679,7.355l1.361.558.66.267.464.168a8.689,8.689,0,0,1,1.82.76,10.392,10.392,0,0,1,3.161,2.352,13.643,13.643,0,0,1,2.521,4,21.2,21.2,0,0,1,.959,2.717c.152.486.285,1,.411,1.519l.2.819c.086.323.087.5.288,1.349.2.784.838,1.209,1.43.948A1.647,1.647,0,0,0,642.179,418.409Z" transform="translate(4.641 36.329)" fill="#fff"/>
    <rect id="Rectangle_40" data-name="Rectangle 40" width="12.172" height="59.592" transform="matrix(1, 0.004, -0.004, 1, 631.424, 224.322)" fill="#e3dfdc"/>
    <rect id="Rectangle_41" data-name="Rectangle 41" width="12.173" height="59.592" transform="matrix(1, 0.004, -0.004, 1, 615.281, 224.322)" fill="#e3dfdc"/>
    <rect id="Rectangle_42" data-name="Rectangle 42" width="12.172" height="59.592" transform="matrix(1, 0.004, -0.004, 1, 599.507, 224.322)" fill="#e3dfdc"/>
    <rect id="Rectangle_43" data-name="Rectangle 43" width="11.978" height="41.342" transform="translate(646.412 242.644) rotate(0.238)" fill="#d3cdc9"/>
    <rect id="Rectangle_44" data-name="Rectangle 44" width="11.978" height="41.342" transform="translate(660.366 252.356) rotate(-40.508)" fill="#e3dfdc"/>
    <path id="Path_21" data-name="Path 21" d="M723.528,277.145,577.76,276.4l.034-15.132,145.767.744Z" transform="translate(0 23.529)" fill="none" stroke="#e3dfdc" stroke-miterlimit="10" stroke-width="3"/>
    <path id="Rectangle_45" data-name="Rectangle 45" d="M0,0H98.515a0,0,0,0,1,0,0V57.374A19.307,19.307,0,0,1,79.208,76.681H21.257A21.257,21.257,0,0,1,0,55.424V0A0,0,0,0,1,0,0Z" transform="translate(773.033 273.228)" fill="#9a1c27"/>
    <path id="Path_22" data-name="Path 22" d="M877.681,394.1l-148.933-2.509V375.749c0-25.866,31.8-49.994,63.067-49.994h23.478c27.778,0,62.388,24.3,62.388,47.275Z" transform="translate(21.381 32.661)" fill="#383f45"/>
    <path id="Path_23" data-name="Path 23" d="M803.755,297.055H784.788a6.938,6.938,0,0,0-6.938,6.938v29.739a16.421,16.421,0,1,0,32.843,0V303.993A6.938,6.938,0,0,0,803.755,297.055Z" transform="translate(28.334 28.597)" fill="#fbc39d"/>
    <path id="Path_24" data-name="Path 24" d="M777.85,325.561s1.329,9.672,16.422,9.672,16.422-9.672,16.422-9.672Z" transform="translate(28.334 32.633)" fill="#f9ac7f"/>
    <path id="Path_25" data-name="Path 25" d="M834.853,264.385a10.792,10.792,0,1,0,10.373,10.782A10.584,10.584,0,0,0,834.853,264.385Z" transform="translate(34.937 23.971)" fill="#f9ac7f"/>
    <path id="Path_26" data-name="Path 26" d="M752.221,264.385a10.792,10.792,0,1,0,10.373,10.782A10.584,10.584,0,0,0,752.221,264.385Z" transform="translate(23.236 23.971)" fill="#f9ac7f"/>
    <path id="Path_27" data-name="Path 27" d="M794.2,344.147l-.081.083c1.273.11,2.556.179,3.856.179h0a44.666,44.666,0,0,0,11.326-1.458c.016-.033.03-.066.046-.1,20.061-5.27,34.909-24.155,34.909-46.649V239.827c0-26.574-20.72-22.341-46.281-22.341h0c-25.561,0-46.281-4.233-46.281,22.341V296.2C751.7,321.454,770.408,342.148,794.2,344.147Z" transform="translate(24.63 17.294)" fill="#fbc39d"/>
    <path id="Path_28" data-name="Path 28" d="M838.346,271.242V286.46H818.51s-4.069-10.981-20.534-10.981-20.535,10.981-20.535,10.981H757.605V271.242c0-6-2.2-7.974-5.91-8.628v27.163c0,25.251,18.713,45.945,42.505,47.944l-.081.083c1.273.11,2.556.179,3.856.179s2.583-.07,3.856-.179l-.081-.083c23.792-2,42.505-22.693,42.505-47.944V262.614C840.544,263.268,838.346,265.245,838.346,271.242Z" transform="translate(24.63 23.72)" fill="#3a0909"/>
    <path id="Path_29" data-name="Path 29" d="M779.693,289.275h27.843s-2.457,10.93-13.922,10.93S779.693,289.275,779.693,289.275Z" transform="translate(28.595 27.495)" fill="#e6e6e6"/>
    <rect id="Rectangle_46" data-name="Rectangle 46" width="233.128" height="16.512" rx="7.066" transform="translate(706.82 489.875)" fill="#c1c1c1"/>
    <rect id="Rectangle_47" data-name="Rectangle 47" width="199.327" height="123.252" rx="9.073" transform="translate(723.055 383.135)" fill="#d2d3d5"/>
    <path id="Path_30" data-name="Path 30" d="M791.908,417.056a13.937,13.937,0,1,1,13.937-13.938A13.954,13.954,0,0,1,791.908,417.056Z" transform="translate(28.351 41.642)" fill="#fff"/>
    <path id="Path_31" data-name="Path 31" d="M794.021,282.152h-2.68a5.267,5.267,0,0,1-5.226-5.922l1.34-10.723a5.266,5.266,0,0,1,5.226-4.613h0a5.268,5.268,0,0,1,5.227,4.613l1.34,10.723A5.268,5.268,0,0,1,794.021,282.152Z" transform="translate(29.498 23.476)" fill="#f9ac7f"/>
    <g id="Group_57" data-name="Group 57" transform="translate(773.027 213.13)">
      <rect id="Rectangle_48" data-name="Rectangle 48" width="17.533" height="8.002" rx="3.424" transform="translate(39.408)" fill="#952c1b"/>
      <path id="Path_32" data-name="Path 32" d="M748.812,257.944l98.515-.05-.006-11.64a43.231,43.231,0,0,0-43.252-43.207l-12.055.006A43.23,43.23,0,0,0,748.806,246.3Z" transform="translate(-748.806 -197.845)" fill="#db3a40"/>
      <path id="Rectangle_49" data-name="Rectangle 49" d="M11.709,0H23.216A11.708,11.708,0,0,1,34.925,11.708V22.587a0,0,0,0,1,0,0H0a0,0,0,0,1,0,0V11.709A11.709,11.709,0,0,1,11.709,0Z" transform="translate(31.121 30.723)" fill="#3a0909"/>
      <path id="Path_33" data-name="Path 33" d="M777.346,238.95l34.408-.018.006,11.558-34.408.018a5.78,5.78,0,0,1-5.782-5.777h0A5.778,5.778,0,0,1,777.346,238.95Z" transform="translate(-745.583 -192.763)" fill="#ef818a"/>
      <path id="Path_34" data-name="Path 34" d="M782.224,244.547a2.813,2.813,0,1,1-2.814-2.812A2.812,2.812,0,0,1,782.224,244.547Z" transform="translate(-744.871 -192.366)" fill="#ff553c"/>
      <path id="Path_35" data-name="Path 35" d="M782.224,244.547a2.813,2.813,0,1,1-2.814-2.812A2.812,2.812,0,0,1,782.224,244.547Z" transform="translate(-744.871 -192.366)" fill="#db3a40"/>
      <circle id="Ellipse_4" data-name="Ellipse 4" cx="2.813" cy="2.813" r="2.813" transform="translate(42.837 49.873) rotate(-9.63)" fill="#db3a40"/>
      <path id="Path_36" data-name="Path 36" d="M802.441,244.537a2.813,2.813,0,1,1-2.814-2.812A2.812,2.812,0,0,1,802.441,244.537Z" transform="translate(-742.008 -192.368)" fill="#db3a40"/>
    </g>
    <path id="Path_37" data-name="Path 37" d="M777.377,261.4a4.278,4.278,0,1,1-4.278-4.278A4.277,4.277,0,0,1,777.377,261.4Z" transform="translate(27.055 22.942)" fill="#111110"/>
    <path id="Path_38" data-name="Path 38" d="M814.637,261.4a4.278,4.278,0,1,1-4.278-4.278A4.277,4.277,0,0,1,814.637,261.4Z" transform="translate(32.332 22.942)" fill="#111110"/>
    <path id="Path_39" data-name="Path 39" d="M808.06,241.388s8.412-5.074,7.771-13.519l-10.838,3.081,2.283-9.359-9.626,9.9Z" transform="translate(31.138 17.911)" fill="#3a0909"/>
    <circle id="Ellipse_5" data-name="Ellipse 5" cx="43.626" cy="43.626" r="43.626" transform="translate(608.681 97.328)" fill="#f4f4f4"/>
    <path id="Path_40" data-name="Path 40" d="M647.9,100.617a38.994,38.994,0,1,0,38.994,38.995A39.039,39.039,0,0,0,647.9,100.617Z" transform="translate(4.41 0.78)" fill="#f4f4f4"/>
    <path id="Path_41" data-name="Path 41" d="M648.677,185.674a45.282,45.282,0,1,1,45.283-45.282A45.334,45.334,0,0,1,648.677,185.674Zm0-84.277a38.994,38.994,0,1,0,38.994,38.995A39.039,39.039,0,0,0,648.677,101.4Z" transform="translate(3.63)" fill="#e3dfdc" stroke="#e3dfdc" stroke-miterlimit="10" stroke-width="1.838"/>
    <path id="Path_42" data-name="Path 42" d="M644.786,145.352a2.355,2.355,0,0,1-2.1-1.283L632.356,123.9a2.358,2.358,0,0,1,4.2-2.15l10.329,20.165a2.359,2.359,0,0,1-2.1,3.434Z" transform="translate(7.694 3.591)" fill="#e3dfdc"/>
    <path id="Path_43" data-name="Path 43" d="M635.926,140.962a1.179,1.179,0,0,1-.2-2.34l38.517-6.641a1.179,1.179,0,0,1,.4,2.324l-38.517,6.64A1.1,1.1,0,0,1,635.926,140.962Z" transform="translate(8.07 5.219)" fill="#e3dfdc"/>
    <path id="Path_44" data-name="Path 44" d="M962.29,429.392h-8.113V376.049a4.057,4.057,0,0,1,4.056-4.056h0a4.057,4.057,0,0,1,4.057,4.056Z" transform="translate(53.303 39.208)" fill="#fff"/>
    <path id="Path_45" data-name="Path 45" d="M972.961,429.392h-8.113V376.049a4.057,4.057,0,0,1,4.057-4.056h0a4.056,4.056,0,0,1,4.056,4.056Z" transform="translate(54.814 39.208)" fill="#fff"/>
    <path id="Path_46" data-name="Path 46" d="M951.11,443.024H943V389.681a4.057,4.057,0,0,1,4.057-4.057h0a4.057,4.057,0,0,1,4.056,4.057Z" transform="translate(51.72 41.139)" fill="#fff"/>
    <rect id="Rectangle_50" data-name="Rectangle 50" width="44.469" height="53.662" transform="translate(988.738 452.915)" fill="#c1c1c1"/>
    <rect id="Rectangle_51" data-name="Rectangle 51" width="53.702" height="10.096" transform="translate(984.36 442.819)" fill="#aaa"/>
    <rect id="Rectangle_52" data-name="Rectangle 52" width="125.995" height="151.877" transform="translate(925.74 137.683)" fill="#f4f4f4"/>
    <rect id="Rectangle_53" data-name="Rectangle 53" width="125.995" height="151.877" transform="translate(925.74 137.683)" fill="none" stroke="#e3dfdc" stroke-miterlimit="10" stroke-width="4.585"/>
    <rect id="Rectangle_54" data-name="Rectangle 54" width="84.192" height="106.607" transform="translate(945.497 160.577)" fill="#e3dfdc"/>
    <path id="Path_47" data-name="Path 47" d="M913.18,203.086a2.72,2.72,0,0,1,0-3.834L926.636,185.8a2.719,2.719,0,0,1,4.036,3.644c-.06.066-.123.129-.189.19l-11.539,11.539,11.539,11.54a2.725,2.725,0,0,1-3.874,3.832Zm36.7,9.624,11.58-11.54L949.919,189.63a2.725,2.725,0,0,1,3.873-3.834l13.456,13.456a2.718,2.718,0,0,1,0,3.834l-13.456,13.456a2.725,2.725,0,0,1-3.873-3.832Zm-16.474,3.3,7.028-30.9a2.718,2.718,0,1,1,5.3,1.21l-7.054,30.894a2.719,2.719,0,0,1-2.637,2.121,3.222,3.222,0,0,1-.612,0,2.718,2.718,0,0,1-2.042-3.257C933.392,216.062,933.4,216.037,933.4,216.013Z" transform="translate(47.386 12.446)" fill="#f3efec"/>
  </g>
</svg>
