<svg id="Outline" xmlns="http://www.w3.org/2000/svg" width="113.733" height="113.734" viewBox="0 0 113.733 113.734">
  <rect id="Rectangle_55" data-name="Rectangle 55" width="20.416" height="3.791" transform="matrix(0.371, -0.928, 0.928, 0.371, 28.569, 56.163)" fill="#6e6e6e"/>
  <path id="Path_50" data-name="Path 50" d="M96.34,185.6l-7.582,5.687a1.9,1.9,0,0,0,0,3.033l7.582,5.687,2.275-3.033-5.56-4.17,5.56-4.17Z" transform="translate(-70.94 -145.414)" fill="#6e6e6e"/>
  <path id="Path_51" data-name="Path 51" d="M189.475,200.006l7.582-5.687a1.9,1.9,0,0,0,0-3.033l-7.582-5.687-2.275,3.033,5.56,4.17-5.56,4.17Z" transform="translate(-146.635 -145.414)" fill="#6e6e6e"/>
  <rect id="Rectangle_56" data-name="Rectangle 56" width="4" height="3" transform="translate(7 28.734)" fill="#6e6e6e"/>
  <rect id="Rectangle_57" data-name="Rectangle 57" width="5" height="3" transform="translate(15 28.734)" fill="#6e6e6e"/>
  <rect id="Rectangle_58" data-name="Rectangle 58" width="4" height="3" transform="translate(23 28.734)" fill="#6e6e6e"/>
  <path id="Path_52" data-name="Path 52" d="M118.343,77.17,103.2,75.013V69.068a18.9,18.9,0,0,0,7.487-13.261h.095a7.58,7.58,0,0,0,3.666-14.217,7.581,7.581,0,0,0-1.8-13.984,8.542,8.542,0,0,0-8.5-7.815,8.447,8.447,0,0,0-4.064,1.049,9.464,9.464,0,0,0-16.515,0A8.447,8.447,0,0,0,79.5,19.791,8.542,8.542,0,0,0,71,27.606a7.587,7.587,0,0,0-5.476,9.246H23.582A7.591,7.591,0,0,0,16,44.433v43.6a7.591,7.591,0,0,0,7.582,7.582H43.7L41.171,103.2H38.747a5.687,5.687,0,1,0,0,11.373H53.911v5.687a9.488,9.488,0,0,0,9.478,9.478s5.949-.014,6.078-.041L91.8,124.981l22.382,4.712c.128.027,6.077.041,6.077.041a9.488,9.488,0,0,0,9.478-9.478V90.306A13.36,13.36,0,0,0,118.343,77.17Zm-34.1-5.887a18.943,18.943,0,0,0,15.164,0V76.31a8.168,8.168,0,0,1-15.164,0Zm22.747-17.372a15.164,15.164,0,1,1-30.329,0v-.68A7.577,7.577,0,0,0,89.687,50.12h4.271a7.577,7.577,0,0,0,13.029,3.112ZM69.076,48.225a3.8,3.8,0,0,1,3.791-3.791v7.582A3.8,3.8,0,0,1,69.076,48.225ZM101.3,40.642a7.6,7.6,0,0,0-7.342,5.687H89.687a7.575,7.575,0,0,0-11.432-4.484l.47-1.41a7.327,7.327,0,0,0,1.724.207,7.586,7.586,0,0,0,6.494-3.673,7.589,7.589,0,0,0,9.758,0,7.586,7.586,0,0,0,6.494,3.673,7.327,7.327,0,0,0,1.724-.207l.47,1.41A7.535,7.535,0,0,0,101.3,40.642Zm3.791,7.582a3.791,3.791,0,1,1-3.791-3.791A3.791,3.791,0,0,1,105.091,48.225Zm-18.956,0a3.791,3.791,0,1,1-3.791-3.791,3.791,3.791,0,0,1,3.791,3.791Zm24.642,3.791V44.433a3.791,3.791,0,1,1,0,7.582Zm-38-20.85c.047,0,.1.008.161.008a1.9,1.9,0,0,0,1.9-2.169l-.012-.081a4.594,4.594,0,0,1-.065-.6A4.744,4.744,0,0,1,79.5,23.582,4.674,4.674,0,0,1,83,25.165a1.9,1.9,0,0,0,3.262-.876,5.682,5.682,0,0,1,11.114,0,1.9,1.9,0,0,0,3.262.877,4.674,4.674,0,0,1,3.5-1.584,4.744,4.744,0,0,1,4.739,4.739,4.592,4.592,0,0,1-.065.6l-.012.081a1.9,1.9,0,0,0,.45,1.523,1.853,1.853,0,0,0,1.452.645c.06,0,.113,0,.161-.008a3.791,3.791,0,1,1-.091,7.581,15.239,15.239,0,0,0-2.409.047l-.487-1.461a1.9,1.9,0,0,0-2.767-1.03,3.724,3.724,0,0,1-1.919.547A3.8,3.8,0,0,1,99.4,33.06a1.9,1.9,0,0,0-2.494-1.8l-.386.128a1.9,1.9,0,0,0-1.174,1.122,3.769,3.769,0,0,1-7.056,0A1.9,1.9,0,0,0,87.12,31.39l-.386-.128a1.9,1.9,0,0,0-2.494,1.8,3.8,3.8,0,0,1-3.791,3.791A3.724,3.724,0,0,1,78.53,36.3a1.9,1.9,0,0,0-2.766,1.03l-.487,1.46a15.281,15.281,0,0,0-2.409-.047,3.791,3.791,0,0,1-.091-7.582ZM19.791,44.433a3.8,3.8,0,0,1,3.791-3.791H67.86a7.622,7.622,0,0,0,1.341.948,7.58,7.58,0,0,0,3.666,14.217h.095a18.9,18.9,0,0,0,7.487,13.262v6.057l-16.06,3.434a13.26,13.26,0,0,0-6.745,3.785H19.791Zm0,43.6v-1.9H55.079a13.122,13.122,0,0,0-1.168,5.4v.284H23.582a3.8,3.8,0,0,1-3.791-3.791Zm27.9,7.582h6.216V103.2H45.168ZM36.851,108.882a1.814,1.814,0,0,1,.545-1.314c.013-.012.025-.024.037-.037a1.814,1.814,0,0,1,1.314-.545H53.911v3.791H38.747A1.9,1.9,0,0,1,36.851,108.882Zm32.027,17.06H63.389a5.693,5.693,0,0,1-5.687-5.687v-1.9h7.008l5.209,3.473a1.9,1.9,0,0,0,1.052.318h7.385l4.249.894Zm57.065-5.687a5.693,5.693,0,0,1-5.687,5.687h-5.489L78.944,118.4a1.9,1.9,0,0,0-.39-.041H71.545l-5.209-3.473a1.9,1.9,0,0,0-1.051-.318H57.7v-9.478H64.9l12.911,5.534a1.909,1.909,0,0,0,.6.148l47.534,3.656Zm0-9.629L108.9,109.315l6.421-2.749,3.432-1.475h7.192Zm0-9.326H118.36a1.9,1.9,0,0,0-.749.154l-1.147.492V95.614h-3.791v7.957l-8.041,3.446L91.851,108l-12.839-.988-8.04-3.446V95.614H67.18v6.332l-1.149-.493a1.9,1.9,0,0,0-.747-.153H57.7V91.538a9.552,9.552,0,0,1,7.486-9.273l16.043-3.43a11.966,11.966,0,0,0,21.233-.095l.463.066h0L117.8,80.923a9.547,9.547,0,0,1,8.14,9.383Z" transform="translate(-16 -16)" fill="#6e6e6e"/>
  <path id="Path_53" data-name="Path 53" d="M316.012,191.262H312v3.791h4.012c2.56,0,5.078-.08,7.484-.237l-.247-3.783C320.926,191.185,318.492,191.262,316.012,191.262Z" transform="translate(-241.864 -149.56)" fill="#6e6e6e"/>
</svg>
