<svg xmlns="http://www.w3.org/2000/svg" width="113.048" height="102.783" viewBox="0 0 113.048 102.783">
  <g id="graphic-design" transform="translate(1 1)">
    <g id="Group_63" data-name="Group 63">
      <path id="Path_64" data-name="Path 64" d="M10.265,23.7H.933A.934.934,0,0,1,0,22.765V13.433A.934.934,0,0,1,.933,12.5h9.332a.934.934,0,0,1,.933.933v9.332A.934.934,0,0,1,10.265,23.7Zm-8.4-1.866H9.332V14.366H1.866Zm0,0" transform="translate(0 -12.5)" fill="#6e6e6e" stroke="#6e6e6e" stroke-width="2"/>
      <path id="Path_65" data-name="Path 65" d="M394.265,23.7h-9.332a.934.934,0,0,1-.933-.933V13.433a.934.934,0,0,1,.933-.933h9.332a.934.934,0,0,1,.933.933v9.332A.934.934,0,0,1,394.265,23.7Zm-8.4-1.866h7.465V14.366h-7.465Zm0,0" transform="translate(-294.415 -12.5)" fill="#6e6e6e" stroke="#6e6e6e" stroke-width="2"/>
      <path id="Path_66" data-name="Path 66" d="M10.265,407.7H.933A.934.934,0,0,1,0,406.765v-9.332a.934.934,0,0,1,.933-.933h9.332a.934.934,0,0,1,.933.933v9.332A.934.934,0,0,1,10.265,407.7Zm-8.4-1.866H9.332v-7.465H1.866Zm0,0" transform="translate(0 -306.915)" fill="#6e6e6e" stroke="#6e6e6e" stroke-width="2"/>
      <path id="Path_67" data-name="Path 67" d="M394.265,407.7h-9.332a.934.934,0,0,1-.933-.933v-9.332a.934.934,0,0,1,.933-.933h9.332a.934.934,0,0,1,.933.933v9.332A.934.934,0,0,1,394.265,407.7Zm-8.4-1.866h7.465v-7.465h-7.465Zm0,0" transform="translate(-294.415 -306.915)" fill="#6e6e6e" stroke="#6e6e6e" stroke-width="2"/>
      <path id="Path_68" data-name="Path 68" d="M105.852,123.951H25.6a.934.934,0,0,1-.933-.933v-3.733H20.933a.934.934,0,0,1-.933-.933V38.1a.934.934,0,0,1,.933-.933h3.733V33.433A.934.934,0,0,1,25.6,32.5h80.253a.934.934,0,0,1,.933.933v3.733h3.733a.934.934,0,0,1,.933.933V85.691a.933.933,0,1,1-1.866,0V39.032h-3.733a.934.934,0,0,1-.933-.933V34.366H26.532V38.1a.934.934,0,0,1-.933.933H21.866v78.387H25.6a.934.934,0,0,1,.933.933v3.733h78.387v-3.733a.934.934,0,0,1,.933-.933h3.733v-9.332a.933.933,0,0,1,1.866,0v10.265a.934.934,0,0,1-.933.933h-3.733v3.733A.934.934,0,0,1,105.852,123.951Zm0,0" transform="translate(-15.334 -27.834)" fill="#6e6e6e" stroke="#6e6e6e" stroke-width="2"/>
    </g>
    <path id="Path_73" data-name="Path 73" d="M135.594,109.3a16.8,16.8,0,1,1-16.8-16.8A16.8,16.8,0,0,1,135.594,109.3Zm0,0" transform="translate(-78.204 -73.836)" fill="none" stroke="#6e6e6e" stroke-width="2"/>
    <path id="Path_74" data-name="Path 74" d="M115.73,123.961a17.73,17.73,0,1,1,17.73-17.73A17.752,17.752,0,0,1,115.73,123.961Zm0-33.594a15.864,15.864,0,1,0,15.864,15.864A15.882,15.882,0,0,0,115.73,90.366Zm0,0" transform="translate(-75.137 -70.77)" fill="#6e6e6e" stroke="#6e6e6e" stroke-width="2"/>
    <path id="Path_75" data-name="Path 75" d="M204.527,123.965a.941.941,0,0,1-.418-.1l-33.594-16.8a.933.933,0,0,1,0-1.668l33.594-16.8a.933.933,0,0,1,1.351.834v33.594a.93.93,0,0,1-.933.933Zm-31.508-17.73,30.574,15.287V90.948Zm0,0" transform="translate(-130.34 -70.774)" fill="#6e6e6e" stroke="#6e6e6e" stroke-width="2"/>
    <path id="Path_76" data-name="Path 76" d="M119.6,289.3a.937.937,0,0,1-.347-.067l-18.663-7.465a.933.933,0,0,1,0-1.732l18.663-7.465a.933.933,0,0,1,1.28.866v14.931a.935.935,0,0,1-.411.773A.923.923,0,0,1,119.6,289.3Zm-16.151-8.4,15.218,6.088V274.81Zm0,0" transform="translate(-76.671 -211.842)" fill="#6e6e6e" stroke="#6e6e6e" stroke-width="2"/>
    <path id="Path_77" data-name="Path 77" d="M109.353,298.668a.933.933,0,0,1-.933-.933v-5.358l-7.139,2.855a.932.932,0,1,1-.693-1.73l8.418-3.369a.934.934,0,0,1,1.28.866v6.736a.934.934,0,0,1-.933.933Zm0,0" transform="translate(-76.671 -225.311)" fill="#6e6e6e" stroke="#6e6e6e" stroke-width="2"/>
    <path id="Path_78" data-name="Path 78" d="M246.523,291.431a4.666,4.666,0,0,0,4.666-4.666v-5.6a4.666,4.666,0,0,0-4.666-4.666H184v14.931Zm0,0" transform="translate(-141.074 -214.91)" fill="none" stroke="#6e6e6e" stroke-width="2"/>
    <path id="Path_79" data-name="Path 79" d="M243.456,289.3H180.933a.934.934,0,0,1-.933-.933V273.433a.934.934,0,0,1,.933-.933h62.523a5.606,5.606,0,0,1,5.6,5.6v5.6A5.606,5.606,0,0,1,243.456,289.3Zm-61.59-1.866h61.59a3.736,3.736,0,0,0,3.733-3.733v-5.6a3.736,3.736,0,0,0-3.733-3.733h-61.59Zm0,0" transform="translate(-138.007 -211.844)" fill="#6e6e6e" stroke="#6e6e6e" stroke-width="2"/>
    <path id="Path_81" data-name="Path 81" d="M392.131,289.3h-11.2a.934.934,0,0,1-.933-.933V273.433a.934.934,0,0,1,.933-.933h11.2a.934.934,0,0,1,.933.933v14.931A.934.934,0,0,1,392.131,289.3Zm-10.265-1.866H391.2V274.366h-9.332Zm0,0" transform="translate(-291.348 -211.844)" fill="#6e6e6e" stroke="#6e6e6e" stroke-width="2"/>
    <path id="Path_82" data-name="Path 82" d="M227.592,306.366H180.933a.933.933,0,0,1,0-1.866h46.659a.933.933,0,1,1,0,1.866Zm0,0" transform="translate(-138.007 -236.378)" fill="#6e6e6e" stroke="#6e6e6e" stroke-width="2"/>
  </g>
</svg>
